HIERARCHY
ROOT Hips
{
	OFFSET 0.000000 0.000000 0.000000
	CHANNELS 6 Xposition Yposition Zposition Yrotation Xrotation Zrotation 
	JOINT LeftHip
	{
		OFFSET 0.085397 -0.001024 0.000114
		CHANNELS 3 Yrotation Xrotation Zrotation
		JOINT LeftKnee
		{
			OFFSET 0.000000 -0.410205 0.000000
			CHANNELS 3 Yrotation Xrotation Zrotation
			JOINT LeftAnkle
			{
				OFFSET 0.000000 -0.492465 0.000077
				CHANNELS 3 Yrotation Xrotation Zrotation
				JOINT LeftToe
				{
					OFFSET 0.000000 -0.086216 0.191193
					CHANNELS 3 Yrotation Xrotation Zrotation
					End Site
					{
						OFFSET 0.000000 0.000000 0.000000
					}
				}
			}
		}
	}
	JOINT RightHip
	{
		OFFSET -0.085397 -0.000998 0.000111
		CHANNELS 3 Yrotation Xrotation Zrotation
		JOINT RightKnee
		{
			OFFSET 0.000000 -0.410205 0.000000
			CHANNELS 3 Yrotation Xrotation Zrotation
			JOINT RightAnkle
			{
				OFFSET 0.000000 -0.492465 0.000077
				CHANNELS 3 Yrotation Xrotation Zrotation
				JOINT RightToe
				{
					OFFSET 0.000000 -0.086216 0.191193
					CHANNELS 3 Yrotation Xrotation Zrotation
					End Site
					{
						OFFSET 0.000000 0.000000 0.000000
					}
				}
			}
		}
	}
	JOINT Chest
	{
		OFFSET 0.000000 0.105887 -0.011765
		CHANNELS 3 Yrotation Xrotation Zrotation
		JOINT Chest3
		{
			OFFSET 0.000000 0.233831 -0.010941
			CHANNELS 3 Yrotation Xrotation Zrotation
			JOINT Chest4
			{
				OFFSET 0.000000 0.111697 0.000413
				CHANNELS 3 Yrotation Xrotation Zrotation
				JOINT Neck
				{
					OFFSET 0.000000 0.151984 0.000000
					CHANNELS 3 Yrotation Xrotation Zrotation
					JOINT Head
					{
						OFFSET 0.000000 0.085950 0.000546
						CHANNELS 3 Yrotation Xrotation Zrotation
						End Site
						{
							OFFSET 0.000000 0.000000 0.000000
						}
					}
				}
				JOINT LeftCollar
				{
					OFFSET 0.029156 0.084949 0.000000
					CHANNELS 3 Yrotation Xrotation Zrotation
					JOINT LeftShoulder
					{
						OFFSET 0.131330 0.000000 0.000000
						CHANNELS 3 Yrotation Xrotation Zrotation
						JOINT LeftElbow
						{
							OFFSET 0.323986 0.000000 0.000000
							CHANNELS 3 Yrotation Xrotation Zrotation
							JOINT LeftWrist
							{
								OFFSET 0.253224 0.000000 -0.000037
								CHANNELS 3 Yrotation Xrotation Zrotation
								End Site
								{
									OFFSET 0.000000 0.000000 0.000000
								}
							}
						}
					}
				}
				JOINT RightCollar
				{
					OFFSET -0.029156 0.084949 0.000000
					CHANNELS 3 Yrotation Xrotation Zrotation
					JOINT RightShoulder
					{
						OFFSET -0.131330 0.000000 0.000000
						CHANNELS 3 Yrotation Xrotation Zrotation
						JOINT RightElbow
						{
							OFFSET -0.323986 0.000000 0.000000
							CHANNELS 3 Yrotation Xrotation Zrotation
							JOINT RightWrist
							{
								OFFSET -0.253224 0.000000 -0.000037
								CHANNELS 3 Yrotation Xrotation Zrotation
								End Site
								{
									OFFSET 0.000000 0.000000 0.000000
								}
							}
						}
					}
				}
			}
		}
	}
}
MOTION
Frames: 17
Frame Time: 0.016667
0.000000 0.000000 0.000000 209.388968 0.484554 1.869346 11.573115 342.460951 6.984695 355.958782 52.612893 356.211148 2.518488 346.877666 343.927100 1.557920 345.994642 3.584805 357.561515 333.085956 353.192344 359.747165 37.872346 358.534034 357.517993 344.385565 8.654753 1.495442 2.336820 357.149818 358.933434 345.197373 5.065532 358.368242 342.101152 4.148886 357.117575 4.930178 5.359782 352.429048 20.190577 356.769189 342.271824 3.966429 354.311023 3.868990 5.052010 346.183688 353.330830 356.199683 282.155513 271.572200 320.961567 313.406998 7.387577 6.655540 356.345556 5.822198 359.999630 349.504768 12.920606 323.908082 44.222891 85.730069 336.101326 358.468173 352.965874 4.948815 355.591588 
0.000000 0.000000 0.000000 208.367750 0.735736 1.526081 11.213268 342.785144 6.318864 355.460622 53.988378 355.736354 1.584153 346.016923 344.359250 0.662736 346.231514 3.683810 357.842854 331.547748 353.340403 0.044627 38.999038 358.909075 358.047915 344.682820 8.832071 1.112092 1.839407 356.838625 358.865443 345.516126 5.348218 358.287666 342.313555 4.398561 357.108548 5.012374 5.285824 352.374637 20.113508 356.968912 342.189271 3.749682 354.569402 3.884149 4.841457 346.114630 353.007299 355.719586 282.031305 270.729962 320.956470 314.305611 7.534896 6.784772 356.526691 5.840709 359.886995 349.568059 12.813393 324.113569 44.600924 86.436446 335.890396 358.753654 352.828036 4.920280 355.596189 
0.000000 0.000000 0.000000 207.320056 1.057462 1.128451 10.877387 343.280965 5.527087 356.042150 54.407683 356.000022 2.277203 343.114343 345.566861 359.534747 349.265828 2.529947 358.205744 329.764850 353.551472 0.329638 40.264297 359.320735 358.600099 345.117133 8.927741 0.429731 1.343443 356.584720 358.804456 345.827315 5.623254 358.209260 342.521174 4.642632 357.082731 5.042434 5.197565 352.277668 20.098868 357.139749 342.135412 3.586205 354.968846 3.918103 4.599397 346.058361 352.766730 355.353635 281.925480 269.881001 321.075349 315.229652 7.731189 6.967015 356.989570 5.897825 359.807328 349.678891 12.655417 324.454891 45.038533 86.984740 335.616648 359.202070 352.932295 4.675704 355.923229 
0.000000 0.000000 0.000000 206.262439 1.424455 0.673378 10.400958 343.754274 4.894713 357.224995 54.348084 356.344904 3.857232 338.932221 347.311513 358.680046 353.465610 0.470708 358.625531 327.675977 353.789556 0.594334 41.829822 359.772674 359.141503 345.573235 8.981296 359.715651 0.893745 356.375313 358.746715 346.134563 5.897727 358.131150 342.727483 4.887106 357.032791 5.074236 5.094722 352.186918 20.114256 357.315097 342.149773 3.475110 355.415436 3.963588 4.334994 346.003769 352.589325 355.090787 281.829494 268.991860 321.306977 316.196590 7.942126 7.296660 357.670029 5.982083 359.728163 349.825067 12.457031 324.904121 45.510943 87.467403 335.314033 359.764631 353.177821 4.435214 356.664780 
0.000000 0.000000 0.000000 205.245987 1.820667 0.218086 9.816997 344.165842 4.266473 358.763887 53.768809 357.094069 5.733602 335.266959 348.737125 358.311688 356.880456 358.455180 358.977811 325.637547 354.031622 0.823157 43.305116 0.226699 359.591072 345.853469 9.023260 359.321422 0.740519 356.264196 358.701110 346.444860 6.137470 358.064679 342.937611 5.103294 357.003181 5.124312 4.957051 352.166466 20.183362 357.460239 342.196441 3.448467 355.992572 3.975595 4.091082 345.965581 352.477404 354.892707 281.771168 268.358607 321.482951 316.950677 8.173757 7.853774 358.472820 6.012943 359.611009 350.037268 12.061332 325.433600 46.063535 88.021435 335.021853 0.485828 353.377696 4.246388 357.631498 
0.000000 0.000000 0.000000 204.320807 2.323009 359.754968 9.264821 344.418133 3.820286 0.129474 52.302396 357.733739 7.581864 332.940051 350.032499 358.406658 359.250051 356.845242 359.188162 323.604407 354.331356 0.998952 44.686767 0.608044 359.914291 345.840790 9.082793 359.410023 1.040903 356.218587 358.671831 346.693674 6.327763 358.011918 343.103884 5.276162 356.924187 5.153810 4.826281 352.220211 20.302355 357.622461 342.298674 3.619636 356.496715 3.989974 3.888725 345.935676 352.458689 354.813817 281.693068 268.156198 321.614973 317.425187 8.397034 8.336800 359.147289 5.983929 359.570157 350.251330 11.411773 325.986745 46.756998 88.768757 334.814184 1.314971 353.343252 4.120905 358.576301 
0.000000 0.000000 0.000000 203.436870 2.855295 359.289958 8.809490 344.541057 3.491971 1.432343 50.375952 358.326131 9.556490 331.193424 351.306294 358.458929 1.149321 355.623726 359.199450 321.734097 354.738114 1.274923 45.749796 1.020283 0.127257 345.775558 9.108076 359.750692 1.524453 356.339966 358.653274 346.918414 6.483908 357.968794 343.253926 5.419844 356.845663 5.175109 4.698972 352.311445 20.468530 357.791737 342.454659 3.904573 356.923670 3.991953 3.708434 345.913041 352.488283 354.818684 281.584368 268.314343 321.719698 317.704966 8.630841 8.495969 359.512935 5.909834 359.576943 350.494320 10.526671 326.614657 47.609155 89.598507 334.660550 2.274617 353.243776 4.165403 359.226309 
0.000000 0.000000 0.000000 202.503597 3.173062 358.906856 8.534473 344.233887 3.255096 2.489393 49.503732 358.898145 11.130032 330.086226 352.088243 358.641261 1.542391 355.273103 359.153324 320.305444 355.130715 1.497077 46.464735 1.351684 0.286326 345.709165 9.115998 0.203294 1.862372 356.721942 358.639643 347.219339 6.614350 357.935282 343.464306 5.545296 356.887968 5.214370 4.549061 352.383134 20.692900 357.947142 342.658577 4.136058 357.375693 3.985491 3.512649 345.925153 352.724892 354.990835 281.442253 268.958197 321.731781 317.644506 8.893304 8.384870 359.539611 5.787702 359.636213 350.907872 9.549318 327.318506 48.701996 90.073503 334.623893 3.338958 353.633409 4.414008 359.338919 
0.000000 0.000000 0.000000 201.526430 3.073680 358.648712 8.615859 343.041801 3.269144 3.025524 51.021684 359.185460 11.974045 329.709080 352.201887 358.946570 359.769921 355.860130 359.102391 319.561019 355.460366 1.587012 46.700475 1.526173 0.345111 345.750285 9.137600 0.453288 1.804258 357.336871 358.631496 347.715386 6.713581 357.915820 343.826628 5.652169 357.108418 5.293966 4.334856 352.358277 20.971637 358.085738 342.978421 4.182162 357.917760 3.932160 3.269550 345.995699 353.197315 355.265299 281.277748 270.298600 321.692022 317.157225 9.318365 8.031902 359.592307 5.586414 359.649734 351.592160 8.516358 328.154359 50.155072 90.132412 334.683822 4.560377 354.464566 4.659452 358.847478 
0.000000 0.000000 0.000000 200.505589 2.764182 358.486717 8.972443 341.415010 3.399658 3.290204 53.676585 359.333214 12.425784 329.914023 351.921732 359.056809 357.075110 356.904935 359.011754 319.249197 355.754629 1.610635 46.594150 1.609735 0.356828 345.787587 9.150298 0.412896 1.658595 358.025728 358.630951 348.286711 6.780692 357.908202 344.251250 5.734173 357.472181 5.388446 4.097575 352.300615 21.316074 358.201624 343.277306 4.315007 358.371184 3.871675 2.935891 346.111373 353.900997 355.716349 281.120384 272.224394 321.519066 316.271382 10.303206 7.329485 0.196466 5.314801 359.658776 352.399259 7.437266 329.105737 51.847952 89.951362 334.740517 5.977721 355.129056 4.516754 357.883919 
0.000000 0.000000 0.000000 199.344038 2.614759 358.392898 9.458589 340.288498 3.366560 3.536574 55.256685 359.478416 12.957411 330.337597 351.613899 358.869306 355.221150 358.003974 358.910835 318.998489 356.045611 1.657767 46.244245 1.695733 0.384676 345.715439 9.216816 359.928222 1.849168 358.541125 358.633344 348.673140 6.832592 357.901715 344.537391 5.795359 357.959168 5.458552 3.943946 352.364039 21.748273 358.265194 343.272283 4.993101 358.474126 3.855259 2.616557 346.203279 354.848644 356.451089 280.930785 274.223301 321.177636 315.199813 11.916842 6.402930 1.704527 5.026591 359.885891 353.092321 6.433950 330.089904 53.591145 89.437590 334.925573 7.471551 355.231977 3.835999 356.986326 
0.000000 0.000000 0.000000 197.853142 2.819342 358.393344 10.116283 340.089406 3.085583 3.720853 54.800894 359.503346 13.818936 330.858538 351.312018 358.430310 354.818605 359.068635 358.972709 318.629757 356.295545 1.820373 45.680140 1.860917 0.569418 345.442392 9.367832 358.886651 2.578977 358.738723 358.633681 348.689658 6.882052 357.887113 344.539925 5.840596 358.566634 5.433339 3.976167 352.681784 22.355004 358.216550 342.784404 6.456764 358.080332 3.919915 2.406858 346.215254 356.150784 357.690571 280.714196 276.099464 320.612165 314.040432 13.601508 5.569131 3.673653 4.817197 0.684775 353.560308 5.656085 330.951026 55.461125 88.649136 335.260284 8.775125 354.925662 3.355607 356.391710 
0.000000 0.000000 0.000000 196.222729 3.187970 358.446217 10.951899 340.309857 2.700865 3.747112 53.414736 359.411924 14.750560 331.551116 350.992742 358.158987 355.056734 359.938568 359.007664 318.319084 356.565075 2.003217 44.885119 2.009770 0.775987 345.056245 9.594240 358.057831 3.625619 358.694314 358.631309 348.522895 6.935021 357.866916 344.401402 5.881845 359.213352 5.322753 4.075049 353.100594 23.076031 358.092206 342.246100 8.369921 357.267247 4.005750 2.327062 346.203163 357.611904 359.143533 280.542185 278.001869 319.987353 312.775953 14.440437 5.181564 5.950805 4.656646 1.808871 353.976417 5.042022 331.757495 57.361873 87.745977 335.706587 9.906662 354.606653 3.160012 356.293413 
0.000000 0.000000 0.000000 194.923352 3.508157 358.422841 11.591526 340.425057 2.413178 3.767715 52.223298 359.396254 15.528077 332.196022 350.794631 358.526662 355.409889 0.241037 358.497475 318.261040 357.069146 1.950522 43.837805 1.896932 0.664601 344.750429 9.933000 358.385377 4.723045 358.554644 358.632437 348.435081 6.985243 357.848545 344.322466 5.923076 359.759244 5.134924 4.100499 353.323673 23.770998 357.964413 342.341500 10.325759 356.177124 3.967644 2.373311 346.208372 358.641922 0.113667 280.535958 279.977944 319.419374 311.649326 14.208329 5.278231 8.578541 4.451734 2.757278 354.392307 4.194712 332.742646 59.053415 87.038831 336.236724 10.919545 354.538426 2.917197 356.684494 
0.000000 0.000000 0.000000 194.223515 3.682511 358.277715 11.806106 340.186386 2.308474 3.950782 51.646753 359.579424 15.985005 332.769477 350.802197 359.488245 355.585911 359.956598 357.204220 318.635906 357.856695 1.527167 42.379151 1.462649 359.982353 344.664404 10.328539 0.006221 5.739342 358.488941 358.645601 348.504889 6.993624 357.844338 344.365833 5.933996 0.075592 5.024615 4.057365 353.462245 24.320015 357.971900 343.038038 12.023194 355.021152 3.867499 2.296144 346.221241 359.199763 0.655277 280.444924 282.156792 319.151343 310.776251 13.279846 5.748823 10.363819 4.187673 3.277341 354.843520 2.944409 333.938682 60.557623 86.658846 336.906847 11.720350 354.666003 2.731872 357.104749 
0.000000 0.000000 0.000000 193.852374 3.806054 358.065014 11.816010 339.821211 2.319314 4.123953 51.250960 359.769530 16.265942 333.326691 350.960053 0.415638 355.610839 359.464867 355.462871 319.324308 358.743215 0.941678 40.587304 0.970706 358.955859 344.714038 10.797680 1.743016 6.634822 358.306800 358.661495 348.635549 6.990053 357.844844 344.458448 5.936960 0.215693 4.944199 3.977238 353.594117 24.805716 358.045031 343.937788 13.464156 354.031145 3.783634 2.124892 346.244788 359.485958 1.086926 280.315125 284.369209 319.084103 310.094922 12.456202 5.954814 10.681694 3.937363 3.512829 355.329877 1.468942 335.277087 61.999526 86.403665 337.822191 12.318763 354.768029 2.823894 356.928308 
0.000000 0.000000 0.000000 193.474953 3.949987 357.815354 11.813554 339.493376 2.342124 4.284342 50.729633 359.969835 16.569998 333.950455 351.122507 0.805354 355.478232 359.096557 353.711656 320.033496 359.598607 0.488066 38.842131 0.714229 357.818629 344.728403 11.464992 2.419549 7.251573 357.593487 358.660641 348.765062 7.047413 357.829040 344.552760 5.992640 0.311265 4.867322 3.898723 353.756924 25.287687 358.106197 344.649459 14.622356 353.336193 3.755082 1.996345 346.252694 359.756052 1.482108 280.231685 285.962342 319.383825 309.783438 12.271709 5.403553 9.710777 3.779348 3.666377 355.772817 0.232157 336.557480 63.240398 86.078150 338.504524 12.806979 354.557721 3.522629 355.705734 
